<?xml version="1.0" encoding="UTF-8" standalone="no"?>
<!DOCTYPE svg PUBLIC "-//W3C//DTD SVG 1.1//EN"
 "http://www.w3.org/Graphics/SVG/1.1/DTD/svg11.dtd">
<!-- Generated by graphviz version 14.1.5 (20260411.2331)
 -->
<!-- Title: AST Pages: 1 -->
<svg width="442pt" height="404pt"
 viewBox="0.00 0.00 442.00 404.00" xmlns="http://www.w3.org/2000/svg" xmlns:xlink="http://www.w3.org/1999/xlink">
<g id="graph0" class="graph" transform="scale(1 1) rotate(0) translate(4 400)">
<title>AST</title>
<polygon fill="white" stroke="none" points="-4,4 -4,-400 438.12,-400 438.12,4 -4,4"/>
<!-- n0 -->
<g id="node1" class="node">
<title>n0</title>
<polygon fill="none" stroke="black" points="209,-396 130.75,-396 130.75,-360 209,-360 209,-396"/>
<text xml:space="preserve" text-anchor="middle" x="169.88" y="-373.32" font-family="Times,serif" font-size="14.00">Program</text>
</g>
<!-- n1 -->
<g id="node2" class="node">
<title>n1</title>
<polygon fill="none" stroke="black" points="198.12,-324 141.62,-324 141.62,-288 198.12,-288 198.12,-324"/>
<text xml:space="preserve" text-anchor="middle" x="169.88" y="-301.32" font-family="Times,serif" font-size="14.00">While</text>
</g>
<!-- n0&#45;&gt;n1 -->
<g id="edge1" class="edge">
<title>n0&#45;&gt;n1</title>
<path fill="none" stroke="black" d="M169.88,-359.7C169.88,-352.41 169.88,-343.73 169.88,-335.54"/>
<polygon fill="black" stroke="black" points="173.38,-335.62 169.88,-325.62 166.38,-335.62 173.38,-335.62"/>
</g>
<!-- n2 -->
<g id="node3" class="node">
<title>n2</title>
<polygon fill="none" stroke="black" points="163.62,-252 62.12,-252 62.12,-216 163.62,-216 163.62,-252"/>
<text xml:space="preserve" text-anchor="middle" x="112.88" y="-229.32" font-family="Times,serif" font-size="14.00">Condition &lt;</text>
</g>
<!-- n1&#45;&gt;n2 -->
<g id="edge2" class="edge">
<title>n1&#45;&gt;n2</title>
<path fill="none" stroke="black" d="M155.79,-287.7C149.23,-279.64 141.29,-269.89 134.03,-260.98"/>
<polygon fill="black" stroke="black" points="136.79,-258.82 127.76,-253.28 131.36,-263.24 136.79,-258.82"/>
</g>
<!-- n5 -->
<g id="node6" class="node">
<title>n5</title>
<polygon fill="none" stroke="black" points="274.12,-252 181.62,-252 181.62,-216 274.12,-216 274.12,-252"/>
<text xml:space="preserve" text-anchor="middle" x="227.88" y="-229.32" font-family="Times,serif" font-size="14.00">Compound</text>
</g>
<!-- n1&#45;&gt;n5 -->
<g id="edge5" class="edge">
<title>n1&#45;&gt;n5</title>
<path fill="none" stroke="black" d="M184.21,-287.7C190.95,-279.56 199.13,-269.69 206.58,-260.7"/>
<polygon fill="black" stroke="black" points="209.05,-263.2 212.74,-253.27 203.66,-258.74 209.05,-263.2"/>
</g>
<!-- n3 -->
<g id="node4" class="node">
<title>n3</title>
<polygon fill="none" stroke="black" points="67.75,-180 0,-180 0,-144 67.75,-144 67.75,-180"/>
<text xml:space="preserve" text-anchor="middle" x="33.88" y="-157.32" font-family="Times,serif" font-size="14.00">Value a</text>
</g>
<!-- n2&#45;&gt;n3 -->
<g id="edge3" class="edge">
<title>n2&#45;&gt;n3</title>
<path fill="none" stroke="black" d="M93.35,-215.7C83.85,-207.28 72.27,-197.02 61.85,-187.79"/>
<polygon fill="black" stroke="black" points="64.39,-185.36 54.59,-181.35 59.75,-190.6 64.39,-185.36"/>
</g>
<!-- n4 -->
<g id="node5" class="node">
<title>n4</title>
<polygon fill="none" stroke="black" points="154.12,-180 85.62,-180 85.62,-144 154.12,-144 154.12,-180"/>
<text xml:space="preserve" text-anchor="middle" x="119.88" y="-157.32" font-family="Times,serif" font-size="14.00">Value b</text>
</g>
<!-- n2&#45;&gt;n4 -->
<g id="edge4" class="edge">
<title>n2&#45;&gt;n4</title>
<path fill="none" stroke="black" d="M114.61,-215.7C115.33,-208.41 116.2,-199.73 117.02,-191.54"/>
<polygon fill="black" stroke="black" points="120.5,-191.91 118.01,-181.61 113.54,-191.21 120.5,-191.91"/>
</g>
<!-- n6 -->
<g id="node7" class="node">
<title>n6</title>
<polygon fill="none" stroke="black" points="259.88,-180 183.88,-180 183.88,-144 259.88,-144 259.88,-180"/>
<text xml:space="preserve" text-anchor="middle" x="221.88" y="-157.32" font-family="Times,serif" font-size="14.00">Assign x</text>
</g>
<!-- n5&#45;&gt;n6 -->
<g id="edge6" class="edge">
<title>n5&#45;&gt;n6</title>
<path fill="none" stroke="black" d="M226.39,-215.7C225.77,-208.41 225.02,-199.73 224.32,-191.54"/>
<polygon fill="black" stroke="black" points="227.81,-191.28 223.47,-181.61 220.84,-191.87 227.81,-191.28"/>
</g>
<!-- n10 -->
<g id="node11" class="node">
<title>n10</title>
<polygon fill="none" stroke="black" points="353.88,-180 277.88,-180 277.88,-144 353.88,-144 353.88,-180"/>
<text xml:space="preserve" text-anchor="middle" x="315.88" y="-157.32" font-family="Times,serif" font-size="14.00">Assign y</text>
</g>
<!-- n5&#45;&gt;n10 -->
<g id="edge10" class="edge">
<title>n5&#45;&gt;n10</title>
<path fill="none" stroke="black" d="M249.63,-215.7C260.31,-207.2 273.37,-196.81 285.06,-187.51"/>
<polygon fill="black" stroke="black" points="287.24,-190.25 292.88,-181.29 282.88,-184.78 287.24,-190.25"/>
</g>
<!-- n7 -->
<g id="node8" class="node">
<title>n7</title>
<polygon fill="none" stroke="black" points="260.75,-108 181,-108 181,-72 260.75,-72 260.75,-108"/>
<text xml:space="preserve" text-anchor="middle" x="220.88" y="-85.33" font-family="Times,serif" font-size="14.00">Binary +</text>
</g>
<!-- n6&#45;&gt;n7 -->
<g id="edge7" class="edge">
<title>n6&#45;&gt;n7</title>
<path fill="none" stroke="black" d="M221.63,-143.7C221.52,-136.41 221.4,-127.73 221.28,-119.54"/>
<polygon fill="black" stroke="black" points="224.78,-119.57 221.14,-109.62 217.78,-119.67 224.78,-119.57"/>
</g>
<!-- n8 -->
<g id="node9" class="node">
<title>n8</title>
<polygon fill="none" stroke="black" points="171.75,-36 104,-36 104,0 171.75,0 171.75,-36"/>
<text xml:space="preserve" text-anchor="middle" x="137.88" y="-13.32" font-family="Times,serif" font-size="14.00">Value x</text>
</g>
<!-- n7&#45;&gt;n8 -->
<g id="edge8" class="edge">
<title>n7&#45;&gt;n8</title>
<path fill="none" stroke="black" d="M200.36,-71.7C190.28,-63.2 177.97,-52.81 166.94,-43.51"/>
<polygon fill="black" stroke="black" points="169.5,-41.09 159.6,-37.32 164.99,-46.45 169.5,-41.09"/>
</g>
<!-- n9 -->
<g id="node10" class="node">
<title>n9</title>
<polygon fill="none" stroke="black" points="258.12,-36 189.62,-36 189.62,0 258.12,0 258.12,-36"/>
<text xml:space="preserve" text-anchor="middle" x="223.88" y="-13.32" font-family="Times,serif" font-size="14.00">Value 1</text>
</g>
<!-- n7&#45;&gt;n9 -->
<g id="edge9" class="edge">
<title>n7&#45;&gt;n9</title>
<path fill="none" stroke="black" d="M221.62,-71.7C221.93,-64.41 222.3,-55.73 222.65,-47.54"/>
<polygon fill="black" stroke="black" points="226.15,-47.76 223.08,-37.62 219.15,-47.46 226.15,-47.76"/>
</g>
<!-- n11 -->
<g id="node12" class="node">
<title>n11</title>
<polygon fill="none" stroke="black" points="353.12,-108 278.62,-108 278.62,-72 353.12,-72 353.12,-108"/>
<text xml:space="preserve" text-anchor="middle" x="315.88" y="-85.33" font-family="Times,serif" font-size="14.00">Binary *</text>
</g>
<!-- n10&#45;&gt;n11 -->
<g id="edge11" class="edge">
<title>n10&#45;&gt;n11</title>
<path fill="none" stroke="black" d="M315.88,-143.7C315.88,-136.41 315.88,-127.73 315.88,-119.54"/>
<polygon fill="black" stroke="black" points="319.38,-119.62 315.88,-109.62 312.38,-119.62 319.38,-119.62"/>
</g>
<!-- n12 -->
<g id="node13" class="node">
<title>n12</title>
<polygon fill="none" stroke="black" points="347.75,-36 280,-36 280,0 347.75,0 347.75,-36"/>
<text xml:space="preserve" text-anchor="middle" x="313.88" y="-13.32" font-family="Times,serif" font-size="14.00">Value y</text>
</g>
<!-- n11&#45;&gt;n12 -->
<g id="edge12" class="edge">
<title>n11&#45;&gt;n12</title>
<path fill="none" stroke="black" d="M315.38,-71.7C315.17,-64.41 314.92,-55.73 314.69,-47.54"/>
<polygon fill="black" stroke="black" points="318.19,-47.51 314.41,-37.62 311.19,-47.71 318.19,-47.51"/>
</g>
<!-- n13 -->
<g id="node14" class="node">
<title>n13</title>
<polygon fill="none" stroke="black" points="434.12,-36 365.62,-36 365.62,0 434.12,0 434.12,-36"/>
<text xml:space="preserve" text-anchor="middle" x="399.88" y="-13.32" font-family="Times,serif" font-size="14.00">Value 2</text>
</g>
<!-- n11&#45;&gt;n13 -->
<g id="edge13" class="edge">
<title>n11&#45;&gt;n13</title>
<path fill="none" stroke="black" d="M336.64,-71.7C346.84,-63.2 359.3,-52.81 370.46,-43.51"/>
<polygon fill="black" stroke="black" points="372.45,-46.41 377.9,-37.32 367.97,-41.03 372.45,-46.41"/>
</g>
</g>
</svg>
