<?xml version="1.0" encoding="UTF-8" standalone="no"?>
<!DOCTYPE svg PUBLIC "-//W3C//DTD SVG 1.1//EN"
 "http://www.w3.org/Graphics/SVG/1.1/DTD/svg11.dtd">
<!-- Generated by graphviz version 14.1.5 (20260411.2331)
 -->
<!-- Title: MiniSlrAutomaton Pages: 1 -->
<svg width="1202pt" height="540pt"
 viewBox="0.00 0.00 1202.00 540.00" xmlns="http://www.w3.org/2000/svg" xmlns:xlink="http://www.w3.org/1999/xlink">
<g id="graph0" class="graph" transform="scale(1 1) rotate(0) translate(4 535.5)">
<title>MiniSlrAutomaton</title>
<polygon fill="white" stroke="none" points="-4,4 -4,-535.5 1197.75,-535.5 1197.75,4 -4,4"/>
<!-- I0 -->
<g id="node1" class="node">
<title>I0</title>
<polygon fill="none" stroke="black" points="115,-186 0,-186 0,-22 115,-22 115,-186"/>
<text xml:space="preserve" text-anchor="middle" x="57.5" y="-168.7" font-family="monospace" font-size="14.00">I0</text>
<text xml:space="preserve" text-anchor="middle" x="57.5" y="-149.2" font-family="monospace" font-size="14.00">S&#39; &#45;&gt; . E</text>
<text xml:space="preserve" text-anchor="middle" x="57.5" y="-129.7" font-family="monospace" font-size="14.00">E &#45;&gt; . E + T</text>
<text xml:space="preserve" text-anchor="middle" x="57.5" y="-110.2" font-family="monospace" font-size="14.00">E &#45;&gt; . T</text>
<text xml:space="preserve" text-anchor="middle" x="57.5" y="-90.7" font-family="monospace" font-size="14.00">T &#45;&gt; . T * F</text>
<text xml:space="preserve" text-anchor="middle" x="57.5" y="-71.2" font-family="monospace" font-size="14.00">T &#45;&gt; . F</text>
<text xml:space="preserve" text-anchor="middle" x="57.5" y="-51.7" font-family="monospace" font-size="14.00">F &#45;&gt; . ( E )</text>
<text xml:space="preserve" text-anchor="middle" x="57.5" y="-32.2" font-family="monospace" font-size="14.00">F &#45;&gt; . id</text>
</g>
<!-- I1 -->
<g id="node2" class="node">
<title>I1</title>
<polygon fill="none" stroke="black" points="274.25,-301.25 159.25,-301.25 159.25,-234.75 274.25,-234.75 274.25,-301.25"/>
<text xml:space="preserve" text-anchor="middle" x="216.75" y="-283.95" font-family="monospace" font-size="14.00">I1</text>
<text xml:space="preserve" text-anchor="middle" x="216.75" y="-264.45" font-family="monospace" font-size="14.00">S&#39; &#45;&gt; E .</text>
<text xml:space="preserve" text-anchor="middle" x="216.75" y="-244.95" font-family="monospace" font-size="14.00">E &#45;&gt; E . + T</text>
</g>
<!-- I0&#45;&gt;I1 -->
<g id="edge1" class="edge">
<title>I0&#45;&gt;I1</title>
<path fill="none" stroke="black" d="M115.27,-163.21C135.35,-184.15 157.49,-207.24 175.87,-226.41"/>
<polygon fill="black" stroke="black" points="173.27,-228.75 182.71,-233.55 178.32,-223.91 173.27,-228.75"/>
<text xml:space="preserve" text-anchor="middle" x="137.12" y="-192.2" font-family="monospace" font-size="14.00">E</text>
</g>
<!-- I2 -->
<g id="node3" class="node">
<title>I2</title>
<polygon fill="none" stroke="black" points="858.75,-88.25 743.75,-88.25 743.75,-21.75 858.75,-21.75 858.75,-88.25"/>
<text xml:space="preserve" text-anchor="middle" x="801.25" y="-70.95" font-family="monospace" font-size="14.00">I2</text>
<text xml:space="preserve" text-anchor="middle" x="801.25" y="-51.45" font-family="monospace" font-size="14.00">E &#45;&gt; T .</text>
<text xml:space="preserve" text-anchor="middle" x="801.25" y="-31.95" font-family="monospace" font-size="14.00">T &#45;&gt; T . * F</text>
</g>
<!-- I0&#45;&gt;I2 -->
<g id="edge2" class="edge">
<title>I0&#45;&gt;I2</title>
<path fill="none" stroke="black" d="M115.17,-43.8C142.86,-20.8 178.27,0 215.75,0 215.75,0 215.75,0 536.25,0 604,0 679.51,-17.57 732.36,-32.85"/>
<polygon fill="black" stroke="black" points="731.25,-36.18 741.83,-35.64 733.23,-29.46 731.25,-36.18"/>
<text xml:space="preserve" text-anchor="middle" x="376" y="-6.2" font-family="monospace" font-size="14.00">T</text>
</g>
<!-- I3 -->
<g id="node4" class="node">
<title>I3</title>
<polygon fill="none" stroke="black" points="842.25,-153.5 760.25,-153.5 760.25,-106.5 842.25,-106.5 842.25,-153.5"/>
<text xml:space="preserve" text-anchor="middle" x="801.25" y="-136.2" font-family="monospace" font-size="14.00">I3</text>
<text xml:space="preserve" text-anchor="middle" x="801.25" y="-116.7" font-family="monospace" font-size="14.00">T &#45;&gt; F .</text>
</g>
<!-- I0&#45;&gt;I3 -->
<g id="edge3" class="edge">
<title>I0&#45;&gt;I3</title>
<path fill="none" stroke="black" d="M115.49,-77.75C144.8,-66.55 181.5,-56 215.75,-56 215.75,-56 215.75,-56 536.25,-56 621.09,-56 649.47,-41.86 725.75,-79 735.92,-83.95 734.79,-90.09 743.75,-97 745.88,-98.64 748.09,-100.26 750.36,-101.84"/>
<polygon fill="black" stroke="black" points="748.37,-104.72 758.64,-107.33 752.23,-98.89 748.37,-104.72"/>
<text xml:space="preserve" text-anchor="middle" x="376" y="-62.2" font-family="monospace" font-size="14.00">F</text>
</g>
<!-- I4 -->
<g id="node5" class="node">
<title>I4</title>
<polygon fill="none" stroke="black" points="592.75,-304 477.75,-304 477.75,-140 592.75,-140 592.75,-304"/>
<text xml:space="preserve" text-anchor="middle" x="535.25" y="-286.7" font-family="monospace" font-size="14.00">I4</text>
<text xml:space="preserve" text-anchor="middle" x="535.25" y="-267.2" font-family="monospace" font-size="14.00">F &#45;&gt; ( . E )</text>
<text xml:space="preserve" text-anchor="middle" x="535.25" y="-247.7" font-family="monospace" font-size="14.00">E &#45;&gt; . E + T</text>
<text xml:space="preserve" text-anchor="middle" x="535.25" y="-228.2" font-family="monospace" font-size="14.00">E &#45;&gt; . T</text>
<text xml:space="preserve" text-anchor="middle" x="535.25" y="-208.7" font-family="monospace" font-size="14.00">T &#45;&gt; . T * F</text>
<text xml:space="preserve" text-anchor="middle" x="535.25" y="-189.2" font-family="monospace" font-size="14.00">T &#45;&gt; . F</text>
<text xml:space="preserve" text-anchor="middle" x="535.25" y="-169.7" font-family="monospace" font-size="14.00">F &#45;&gt; . ( E )</text>
<text xml:space="preserve" text-anchor="middle" x="535.25" y="-150.2" font-family="monospace" font-size="14.00">F &#45;&gt; . id</text>
</g>
<!-- I0&#45;&gt;I4 -->
<g id="edge4" class="edge">
<title>I0&#45;&gt;I4</title>
<path fill="none" stroke="black" d="M115.41,-118.12C203.34,-139.93 371.89,-181.73 466.15,-205.11"/>
<polygon fill="black" stroke="black" points="465.25,-208.49 475.8,-207.5 466.94,-201.7 465.25,-208.49"/>
<text xml:space="preserve" text-anchor="middle" x="296.38" y="-169.2" font-family="monospace" font-size="14.00">(</text>
</g>
<!-- I5 -->
<g id="node6" class="node">
<title>I5</title>
<polygon fill="none" stroke="black" points="1181.38,-393.5 1091.12,-393.5 1091.12,-346.5 1181.38,-346.5 1181.38,-393.5"/>
<text xml:space="preserve" text-anchor="middle" x="1136.25" y="-376.2" font-family="monospace" font-size="14.00">I5</text>
<text xml:space="preserve" text-anchor="middle" x="1136.25" y="-356.7" font-family="monospace" font-size="14.00">F &#45;&gt; id .</text>
</g>
<!-- I0&#45;&gt;I5 -->
<g id="edge5" class="edge">
<title>I0&#45;&gt;I5</title>
<path fill="none" stroke="black" d="M72.91,-186.07C96.2,-305.22 146.57,-512 215.75,-512 215.75,-512 215.75,-512 969.75,-512 1036.17,-512 1089.28,-445.31 1116.13,-403.34"/>
<polygon fill="black" stroke="black" points="1118.97,-405.39 1121.27,-395.05 1113.02,-401.7 1118.97,-405.39"/>
<text xml:space="preserve" text-anchor="middle" x="535.25" y="-518.2" font-family="monospace" font-size="14.00">id</text>
</g>
<!-- I6 -->
<g id="node7" class="node">
<title>I6</title>
<polygon fill="none" stroke="black" points="433.5,-374.5 318.5,-374.5 318.5,-249.5 433.5,-249.5 433.5,-374.5"/>
<text xml:space="preserve" text-anchor="middle" x="376" y="-357.2" font-family="monospace" font-size="14.00">I6</text>
<text xml:space="preserve" text-anchor="middle" x="376" y="-337.7" font-family="monospace" font-size="14.00">E &#45;&gt; E + . T</text>
<text xml:space="preserve" text-anchor="middle" x="376" y="-318.2" font-family="monospace" font-size="14.00">T &#45;&gt; . T * F</text>
<text xml:space="preserve" text-anchor="middle" x="376" y="-298.7" font-family="monospace" font-size="14.00">T &#45;&gt; . F</text>
<text xml:space="preserve" text-anchor="middle" x="376" y="-279.2" font-family="monospace" font-size="14.00">F &#45;&gt; . ( E )</text>
<text xml:space="preserve" text-anchor="middle" x="376" y="-259.7" font-family="monospace" font-size="14.00">F &#45;&gt; . id</text>
</g>
<!-- I1&#45;&gt;I6 -->
<g id="edge6" class="edge">
<title>I1&#45;&gt;I6</title>
<path fill="none" stroke="black" d="M274.52,-283.89C285.14,-286.86 296.34,-289.99 307.26,-293.05"/>
<polygon fill="black" stroke="black" points="306.02,-296.33 316.59,-295.66 307.9,-289.59 306.02,-296.33"/>
<text xml:space="preserve" text-anchor="middle" x="296.38" y="-296.2" font-family="monospace" font-size="14.00">+</text>
</g>
<!-- I7 -->
<g id="node8" class="node">
<title>I7</title>
<polygon fill="none" stroke="black" points="1026.25,-249 911.25,-249 911.25,-163 1026.25,-163 1026.25,-249"/>
<text xml:space="preserve" text-anchor="middle" x="968.75" y="-231.7" font-family="monospace" font-size="14.00">I7</text>
<text xml:space="preserve" text-anchor="middle" x="968.75" y="-212.2" font-family="monospace" font-size="14.00">T &#45;&gt; T * . F</text>
<text xml:space="preserve" text-anchor="middle" x="968.75" y="-192.7" font-family="monospace" font-size="14.00">F &#45;&gt; . ( E )</text>
<text xml:space="preserve" text-anchor="middle" x="968.75" y="-173.2" font-family="monospace" font-size="14.00">F &#45;&gt; . id</text>
</g>
<!-- I2&#45;&gt;I7 -->
<g id="edge7" class="edge">
<title>I2&#45;&gt;I7</title>
<path fill="none" stroke="black" d="M848.63,-88.61C852.1,-91.39 855.51,-94.2 858.75,-97 879.39,-114.83 900.88,-135.74 919.26,-154.45"/>
<polygon fill="black" stroke="black" points="916.66,-156.79 926.14,-161.51 921.67,-151.91 916.66,-156.79"/>
<text xml:space="preserve" text-anchor="middle" x="885" y="-134.69" font-family="monospace" font-size="14.00">*</text>
</g>
<!-- I4&#45;&gt;I2 -->
<g id="edge9" class="edge">
<title>I4&#45;&gt;I2</title>
<path fill="none" stroke="black" d="M593.16,-151.18C598.81,-145.89 604.71,-140.91 610.75,-136.5 647.65,-109.59 694.8,-89.27 732.84,-75.65"/>
<polygon fill="black" stroke="black" points="733.6,-79.09 741.88,-72.48 731.29,-72.48 733.6,-79.09"/>
<text xml:space="preserve" text-anchor="middle" x="668.25" y="-142.7" font-family="monospace" font-size="14.00">T</text>
</g>
<!-- I4&#45;&gt;I3 -->
<g id="edge10" class="edge">
<title>I4&#45;&gt;I3</title>
<path fill="none" stroke="black" d="M592.95,-191.61C598.87,-188.99 604.88,-186.57 610.75,-184.5 660.05,-167.17 675.77,-175.26 725.75,-160 733.54,-157.62 741.66,-154.76 749.55,-151.77"/>
<polygon fill="black" stroke="black" points="750.66,-155.1 758.7,-148.19 748.11,-148.58 750.66,-155.1"/>
<text xml:space="preserve" text-anchor="middle" x="668.25" y="-190.7" font-family="monospace" font-size="14.00">F</text>
</g>
<!-- I4&#45;&gt;I4 -->
<g id="edge11" class="edge">
<title>I4&#45;&gt;I4</title>
<path fill="none" stroke="black" d="M522.17,-304.38C524.43,-314.99 528.8,-322 535.25,-322 539.18,-322 542.34,-319.4 544.72,-314.96"/>
<polygon fill="black" stroke="black" points="547.92,-316.41 547.84,-305.82 541.3,-314.15 547.92,-316.41"/>
<text xml:space="preserve" text-anchor="middle" x="535.25" y="-328.2" font-family="monospace" font-size="14.00">(</text>
</g>
<!-- I4&#45;&gt;I5 -->
<g id="edge12" class="edge">
<title>I4&#45;&gt;I5</title>
<path fill="none" stroke="black" d="M593.14,-236.06C708.03,-264.44 966.41,-328.28 1079.96,-356.34"/>
<polygon fill="black" stroke="black" points="1078.79,-359.65 1089.34,-358.66 1080.47,-352.86 1078.79,-359.65"/>
<text xml:space="preserve" text-anchor="middle" x="885" y="-315.79" font-family="monospace" font-size="14.00">id</text>
</g>
<!-- I8 -->
<g id="node9" class="node">
<title>I8</title>
<polygon fill="none" stroke="black" points="858.75,-428.25 743.75,-428.25 743.75,-361.75 858.75,-361.75 858.75,-428.25"/>
<text xml:space="preserve" text-anchor="middle" x="801.25" y="-410.95" font-family="monospace" font-size="14.00">I8</text>
<text xml:space="preserve" text-anchor="middle" x="801.25" y="-391.45" font-family="monospace" font-size="14.00">F &#45;&gt; ( E . )</text>
<text xml:space="preserve" text-anchor="middle" x="801.25" y="-371.95" font-family="monospace" font-size="14.00">E &#45;&gt; E . + T</text>
</g>
<!-- I4&#45;&gt;I8 -->
<g id="edge8" class="edge">
<title>I4&#45;&gt;I8</title>
<path fill="none" stroke="black" d="M592.96,-277.65C598.7,-281.58 604.66,-285.12 610.75,-288 657.54,-310.15 684.73,-274.92 725.75,-306.5 741.36,-318.52 731.95,-331.23 743.75,-347 745.4,-349.21 747.18,-351.39 749.04,-353.52"/>
<polygon fill="black" stroke="black" points="746.13,-355.54 755.54,-360.41 751.22,-350.73 746.13,-355.54"/>
<text xml:space="preserve" text-anchor="middle" x="668.25" y="-312.7" font-family="monospace" font-size="14.00">E</text>
</g>
<!-- I6&#45;&gt;I3 -->
<g id="edge14" class="edge">
<title>I6&#45;&gt;I3</title>
<path fill="none" stroke="black" d="M390,-249.29C403.38,-202.37 429.34,-141.35 477.75,-111.5 561.4,-59.91 681.65,-87.62 749.19,-110.24"/>
<polygon fill="black" stroke="black" points="747.94,-113.51 758.54,-113.46 750.22,-106.89 747.94,-113.51"/>
<text xml:space="preserve" text-anchor="middle" x="535.25" y="-117.7" font-family="monospace" font-size="14.00">F</text>
</g>
<!-- I6&#45;&gt;I4 -->
<g id="edge15" class="edge">
<title>I6&#45;&gt;I4</title>
<path fill="none" stroke="black" d="M433.77,-279.51C444.73,-273.24 456.3,-266.62 467.53,-260.18"/>
<polygon fill="black" stroke="black" points="469.04,-263.35 475.98,-255.35 465.57,-257.28 469.04,-263.35"/>
<text xml:space="preserve" text-anchor="middle" x="455.62" y="-273.2" font-family="monospace" font-size="14.00">(</text>
</g>
<!-- I6&#45;&gt;I5 -->
<g id="edge16" class="edge">
<title>I6&#45;&gt;I5</title>
<path fill="none" stroke="black" d="M410.13,-374.7C437.25,-416.57 479.95,-464 534.25,-464 534.25,-464 534.25,-464 969.75,-464 1021.55,-464 1071.97,-428.75 1103.27,-401.43"/>
<polygon fill="black" stroke="black" points="1105.35,-404.26 1110.46,-394.97 1100.68,-399.05 1105.35,-404.26"/>
<text xml:space="preserve" text-anchor="middle" x="801.25" y="-470.2" font-family="monospace" font-size="14.00">id</text>
</g>
<!-- I9 -->
<g id="node10" class="node">
<title>I9</title>
<polygon fill="none" stroke="black" points="725.75,-401.25 610.75,-401.25 610.75,-334.75 725.75,-334.75 725.75,-401.25"/>
<text xml:space="preserve" text-anchor="middle" x="668.25" y="-383.95" font-family="monospace" font-size="14.00">I9</text>
<text xml:space="preserve" text-anchor="middle" x="668.25" y="-364.45" font-family="monospace" font-size="14.00">E &#45;&gt; E + T .</text>
<text xml:space="preserve" text-anchor="middle" x="668.25" y="-344.95" font-family="monospace" font-size="14.00">T &#45;&gt; T . * F</text>
</g>
<!-- I6&#45;&gt;I9 -->
<g id="edge13" class="edge">
<title>I6&#45;&gt;I9</title>
<path fill="none" stroke="black" d="M433.93,-337.22C448.01,-342.56 463.23,-347.61 477.75,-351 517.37,-360.25 562.73,-364.54 599.14,-366.49"/>
<polygon fill="black" stroke="black" points="598.96,-369.99 609.11,-366.97 599.3,-362.99 598.96,-369.99"/>
<text xml:space="preserve" text-anchor="middle" x="455.62" y="-352.23" font-family="monospace" font-size="14.00">T</text>
</g>
<!-- I7&#45;&gt;I4 -->
<g id="edge18" class="edge">
<title>I7&#45;&gt;I4</title>
<path fill="none" stroke="black" d="M910.77,-208.11C831.72,-211.04 688.98,-216.34 604.39,-219.47"/>
<polygon fill="black" stroke="black" points="604.48,-215.97 594.62,-219.84 604.74,-222.96 604.48,-215.97"/>
<text xml:space="preserve" text-anchor="middle" x="801.25" y="-220.47" font-family="monospace" font-size="14.00">(</text>
</g>
<!-- I7&#45;&gt;I5 -->
<g id="edge19" class="edge">
<title>I7&#45;&gt;I5</title>
<path fill="none" stroke="black" d="M1026.43,-222.71C1038.62,-228.05 1050.81,-234.88 1060.75,-243.5 1089.64,-268.57 1110.26,-307.72 1122.38,-335.83"/>
<polygon fill="black" stroke="black" points="1119.11,-337.08 1126.18,-344.98 1125.58,-334.4 1119.11,-337.08"/>
<text xml:space="preserve" text-anchor="middle" x="1052.5" y="-249.7" font-family="monospace" font-size="14.00">id</text>
</g>
<!-- I10 -->
<g id="node11" class="node">
<title>I10</title>
<polygon fill="none" stroke="black" points="1193.75,-222.5 1078.75,-222.5 1078.75,-175.5 1193.75,-175.5 1193.75,-222.5"/>
<text xml:space="preserve" text-anchor="middle" x="1136.25" y="-205.2" font-family="monospace" font-size="14.00">I10</text>
<text xml:space="preserve" text-anchor="middle" x="1136.25" y="-185.7" font-family="monospace" font-size="14.00">T &#45;&gt; T * F .</text>
</g>
<!-- I7&#45;&gt;I10 -->
<g id="edge17" class="edge">
<title>I7&#45;&gt;I10</title>
<path fill="none" stroke="black" d="M1026.68,-201.46C1032.61,-201.09 1038.55,-200.76 1044.25,-200.5 1051.67,-200.17 1059.44,-199.9 1067.18,-199.7"/>
<polygon fill="black" stroke="black" points="1067.01,-203.2 1076.93,-199.47 1066.85,-196.2 1067.01,-203.2"/>
<text xml:space="preserve" text-anchor="middle" x="1052.5" y="-206.7" font-family="monospace" font-size="14.00">F</text>
</g>
<!-- I8&#45;&gt;I6 -->
<g id="edge20" class="edge">
<title>I8&#45;&gt;I6</title>
<path fill="none" stroke="black" d="M743.52,-402.68C671.94,-409.82 546.68,-413.64 451.5,-370 448.89,-368.8 446.29,-367.5 443.71,-366.11"/>
<polygon fill="black" stroke="black" points="445.59,-363.15 435.19,-361.12 442.05,-369.19 445.59,-363.15"/>
<text xml:space="preserve" text-anchor="middle" x="535.25" y="-410.16" font-family="monospace" font-size="14.00">+</text>
</g>
<!-- I11 -->
<g id="node12" class="node">
<title>I11</title>
<polygon fill="none" stroke="black" points="1026.25,-418.5 911.25,-418.5 911.25,-371.5 1026.25,-371.5 1026.25,-418.5"/>
<text xml:space="preserve" text-anchor="middle" x="968.75" y="-401.2" font-family="monospace" font-size="14.00">I11</text>
<text xml:space="preserve" text-anchor="middle" x="968.75" y="-381.7" font-family="monospace" font-size="14.00">F &#45;&gt; ( E ) .</text>
</g>
<!-- I8&#45;&gt;I11 -->
<g id="edge21" class="edge">
<title>I8&#45;&gt;I11</title>
<path fill="none" stroke="black" d="M859.21,-395C872.28,-395 886.31,-395 899.8,-395"/>
<polygon fill="black" stroke="black" points="899.46,-398.5 909.46,-395 899.46,-391.5 899.46,-398.5"/>
<text xml:space="preserve" text-anchor="middle" x="885" y="-401.2" font-family="monospace" font-size="14.00">)</text>
</g>
<!-- I9&#45;&gt;I7 -->
<g id="edge22" class="edge">
<title>I9&#45;&gt;I7</title>
<path fill="none" stroke="black" d="M726.08,-340.14C731.98,-337.72 737.94,-335.45 743.75,-333.5 808.21,-311.86 835.64,-337.11 893.25,-301 910.32,-290.3 925.08,-274.24 936.85,-258.35"/>
<polygon fill="black" stroke="black" points="939.63,-260.48 942.56,-250.3 933.92,-256.43 939.63,-260.48"/>
<text xml:space="preserve" text-anchor="middle" x="801.25" y="-339.7" font-family="monospace" font-size="14.00">*</text>
</g>
</g>
</svg>
